<svg xmlns="http://www.w3.org/2000/svg" viewBox="0 0 123.45 123.46"><defs><style>.cls-1{fill:#fff;stroke:#fff;stroke-miterlimit:22.93;stroke-width:0.57px;fill-rule:evenodd;}</style></defs><g id="Layer_2" data-name="Layer 2"><g id="Layer_1-2" data-name="Layer 1"><path class="cls-1" d="M61.72.28a61.25,61.25,0,0,1,38.93,13.9L46.86,45.24V2.1A61.21,61.21,0,0,1,61.72.28ZM106,19.12a61.25,61.25,0,0,1,17.17,42.6,62.12,62.12,0,0,1-.64,8.89L69.66,40.09l36.33-21Zm15.06,58.64a61.59,61.59,0,0,1-34.91,40.36V57.61l34.91,20.15ZM79.21,120.64A61.51,61.51,0,0,1,25.06,111L79.22,79.76v40.88Zm-59.8-14.37A61.45,61.45,0,0,1,.93,52.8L55.44,85.45l-36,20.82Zm-17-60.65A61.6,61.6,0,0,1,39.91,4.27l-.44,63.54-37-22.19Z"/></g></g></svg>