<svg xmlns="http://www.w3.org/2000/svg" viewBox="0 0 122.88 122.88"><defs><style>.cls-1{fill:#fff;}</style></defs><g id="Layer_2" data-name="Layer 2"><g id="Layer_1-2" data-name="Layer 1"><path class="cls-1" d="M5.79,62.91q4.14,3.68,8.27,7A111.69,111.69,0,0,1,26,54.69a10.84,10.84,0,0,1-1.28-5.14A10.71,10.71,0,0,1,25,46.89c-4.51-2.91-9.14-6.17-14-9.79A55.59,55.59,0,0,0,5.49,61.44h0c0,.59,0,1.18,0,1.77l.27-.3Zm7.94-30.68c4.83,3.65,9.45,6.91,13.93,9.83a11,11,0,0,1,14.65-1.21q2-1.32,4-2.53a90.18,90.18,0,0,1,18.41-8.18,11.43,11.43,0,0,1-.07-1.32,12.16,12.16,0,0,1,.94-4.72A112.63,112.63,0,0,0,41.93,9a56.19,56.19,0,0,0-28.2,23.23ZM49.6,6.75A113.19,113.19,0,0,1,68.85,19.62a12.19,12.19,0,0,1,6.9-3q.89-4.34,1.68-8.82a55.9,55.9,0,0,0-16-2.33h0A56.36,56.36,0,0,0,49.6,6.75ZM82.68,9.68q-.69,3.9-1.46,7.68a12.23,12.23,0,0,1,7.52,8.28,132.57,132.57,0,0,1,15.51-.2c-1-1.23-2.12-2.42-3.26-3.55A56.09,56.09,0,0,0,82.68,9.68ZM108.5,31.2a131.85,131.85,0,0,0-19.56-.06,12.22,12.22,0,0,1-3.77,6.73,73.43,73.43,0,0,1,4.41,7.78A76.36,76.36,0,0,1,94.32,58c.38,0,.76-.06,1.16-.06a11,11,0,0,1,10.46,7.71c3.63.13,7.38.2,11.27.22.12-1.46.18-2.94.18-4.43h0A55.64,55.64,0,0,0,108.5,31.2Zm8,40.15c-3.55,0-7-.09-10.3-.2a11,11,0,0,1-8.55,8.5,118.9,118.9,0,0,1-.54,16c3.14-.33,6.32-.79,9.56-1.36a55.76,55.76,0,0,0,9.83-23Zm-6.67,27.93v.06h-.07a59.76,59.76,0,0,1-4.9,5.53,61.25,61.25,0,0,1-43.44,18h0A61.42,61.42,0,0,1,0,61.44H0A61.42,61.42,0,0,1,61.44,0h0a61.42,61.42,0,0,1,61.43,61.43h0a61.17,61.17,0,0,1-13,37.84Zm-8.6,1.46c-1.61.21-3.2.39-4.79.55-.19,1.41-.42,2.84-.66,4.29A55.39,55.39,0,0,0,101,101l.25-.25Zm-11.82,9.14q.84-4.17,1.43-8.18A110.92,110.92,0,0,1,62,99.54a9.85,9.85,0,0,1-7.55,3.52l-.66,0c-1.75,4.46-3.44,8.8-5,12.9a56.31,56.31,0,0,0,12.67,1.45v0h0v0a55.64,55.64,0,0,0,28-7.51Zm-45.94,4.56c1.7-4.52,3.4-8.88,5.12-13.28a9.86,9.86,0,0,1-4-6.86A130.29,130.29,0,0,1,15.51,77.89q-2.29,3.87-4.39,8a56.23,56.23,0,0,0,32.36,28.54ZM8.41,79.29q1.32-2.42,2.71-4.74-2.44-1.92-4.89-4a56.17,56.17,0,0,0,2.18,8.72Zm37.3-34.12a11.05,11.05,0,0,1,.49,7.41,124.86,124.86,0,0,0,17.94,7c2.18-6.53,4.27-13.31,6.22-20.4a12.26,12.26,0,0,1-3.8-3.82,84.62,84.62,0,0,0-17.44,7.72c-1.15.68-2.29,1.39-3.41,2.12ZM43.39,57.33a11,11,0,0,1-13.7,1.42A107,107,0,0,0,18.42,73.21,126.13,126.13,0,0,0,45.59,88.78a9.88,9.88,0,0,1,8.84-5.46,10,10,0,0,1,1.1.06c2.3-6,4.6-12.19,6.83-18.63a129.75,129.75,0,0,1-19-7.42Zm37-16.76a12.22,12.22,0,0,1-3.44.49A10.29,10.29,0,0,1,75.56,41c-1.93,7-4,13.62-6.12,20a141,141,0,0,0,16.2,3.06A10.94,10.94,0,0,1,89.15,60a70,70,0,0,0-4.52-11.89,69.11,69.11,0,0,0-4.26-7.49ZM92.15,79.35a11,11,0,0,1-7.62-9.89,146.09,146.09,0,0,1-16.86-3.22C65.36,72.9,63,79.29,60.61,85.49a9.86,9.86,0,0,1,3.69,7.7,12.09,12.09,0,0,1-.07,1.21,106.57,106.57,0,0,0,27.32,1.76,113.82,113.82,0,0,0,.6-16.81Z"/></g></g></svg>