<svg xmlns="http://www.w3.org/2000/svg" viewBox="0 0 83.42 95.03"><defs><style>.cls-1{fill:#d4d4d4;}</style></defs><g id="Layer_2" data-name="Layer 2"><g id="Layer_1-2" data-name="Layer 1"><path class="cls-1" d="M3.19,22.55,41.71,0,80,22.45l-8.22,4.36L41.52,9.19,11.23,27.1Z"/><path class="cls-1" d="M44.9,95V49.74L83.42,27.48,83,37.55l-31.68,18q-.14,4.26-.25,8.51L71.23,53.52c-.12,3.13-.25,6.27-.37,9.41l-19.47,10,.09,18.41Q48.2,93.2,44.9,95Z"/><path class="cls-1" d="M38.9,49,34,46.45,19.74,72.19Q13,51.3,6.19,30.39l-6-3.29L0,72.77l5,3.29.39-28.64q5.52,17.33,11,34.64L22.06,85q5.82-10.74,11.62-21.49Q33.38,77.24,33.1,91l6.19,3.68Z"/></g></g></svg>