<svg xmlns="http://www.w3.org/2000/svg" viewBox="0 0 116.29 122.88"><defs><style>.cls-1{fill:#fff;fill-rule:evenodd;}</style></defs><g id="Layer_2" data-name="Layer 2"><g id="Layer_1-2" data-name="Layer 1"><path class="cls-1" d="M42.85,22.45,77.49,8l29.87,30.77L93.42,73.3a290.31,290.31,0,0,0-66.45,28L22.75,96,64,55.14a6.33,6.33,0,0,0,2.64.57h0a6.44,6.44,0,1,0-6.44-6.44A6.36,6.36,0,0,0,61,52.43L20.22,93,14.56,87.8A251.25,251.25,0,0,0,42.85,22.45ZM87.36,0l28.93,29.64-2.64,2.57L111,34.78,82.08,5.13l2.64-2.57L87.36,0ZM19,107.36c13.56,12.48,21.54,7,32.83-.68C61.16,100.3,72.45,92.59,89.57,90a9.92,9.92,0,1,1,.68,7.35C74.93,99.82,64.56,106.9,56,112.76c-14.47,9.88-24.58,16.78-42.3-.24a10,10,0,0,1-3.74.73h0a9.92,9.92,0,1,1,9.92-9.92h0a9.93,9.93,0,0,1-.85,4Z"/></g></g></svg>