<svg xmlns="http://www.w3.org/2000/svg" viewBox="0 0 122.88 122.88"><defs><style>.cls-1{fill:#fff;fill-rule:evenodd;}</style></defs><g id="Layer_2" data-name="Layer 2"><g id="Layer_1-2" data-name="Layer 1"><path class="cls-1" d="M61.44,0,75,11l17.2-2.76,6.21,16.28,16.28,6.21-2.76,17.2,11,13.52L111.89,75l2.76,17.2L98.37,98.37l-6.21,16.28L75,111.89l-13.52,11-13.52-11-17.2,2.76L24.51,98.37,8.23,92.16,11,75,0,61.44,11,47.92,8.23,30.72l16.28-6.21L30.72,8.23,47.92,11,61.44,0Zm0,39.54L67.78,55l16.69,1.24L71.7,67.09l4,16.26L61.45,74.54,47.22,83.35l4-16.26L38.41,56.27,55.1,55l6.34-15.49Zm0-12.83A34.73,34.73,0,1,1,26.71,61.44,34.73,34.73,0,0,1,61.44,26.71Z"/></g></g></svg>